
<svg version="1.1" id="Layer_1" xmlns="http://www.w3.org/2000/svg" xmlns:xlink="http://www.w3.org/1999/xlink" x="0px" y="0px"
	 viewBox="0 0 226 226" style="enable-background:new 0 0 226 226;" xml:space="preserve">
<style type="text/css">
	.st0{fill-rule:evenodd;clip-rule:evenodd;fill:#15234A;stroke:#FFFFFF;stroke-width:2;}
	.st1{fill-rule:evenodd;clip-rule:evenodd;fill:#FFFFFF;stroke:#FFFFFF;stroke-width:2;stroke-miterlimit:10;}
	.st2{fill:none;stroke:#FFFFFF;stroke-width:2;}
	.st3{fill:#FFFFFF;stroke:#FFFFFF;stroke-width:2;stroke-miterlimit:10;}
</style>
<g>
	<path class="st0" d="M113,222.6C52.6,222.6,3.4,173.4,3.4,113C3.4,52.6,52.6,3.4,113,3.4S222.6,52.6,222.6,113
		C222.6,173.4,173.4,222.6,113,222.6z"/>
	<g>
		<path class="st1" d="M93.4,62.6c-0.2,0.3-0.7,0.4-1.2,0.4C92.3,62.5,93,62.2,93.4,62.6z"/>
		<path class="st1" d="M112,97.8c0.9,0.6,0.7,1.9-0.3,2.4C111.6,99.2,112.2,98.8,112,97.8z"/>
		<path class="st1" d="M122.7,109.4c0.2,0.6-1.3,0.6-0.2,0.8c-0.3,0.3-0.6,0.6-0.9,1c-0.7-0.2-1.1-0.8-1.2-1.7
			C121.2,109.2,122.1,109.7,122.7,109.4z"/>
		<path class="st1" d="M160.9,56.9c-0.2,0-0.4-0.1-0.4-0.2c0.3,3.1-2.1,6.6-2.4,10.4c-1-0.8,0.2,0.6-0.8,0.6c0,0.2,0.2,0.1,0.2,0
			c-0.9,3.1-5.2,0.1-7.3-0.8c-1.2-4.5,1.8-8.5,2.9-13c1.7-0.9,1.6-1.2,3.5-1.9c2.4,0.3,3.8,2.7,4.4,4.8
			C160.9,56.8,160.9,56.8,160.9,56.9z"/>
		<path class="st1" d="M117.9,150.2c0-0.5-0.7-0.2-1.2-0.4c-0.6-0.3-1.4-1.6-2.4-1.9c-0.4-0.1-1,0.3-1.4,0.1
			c-0.6-0.2-0.9-1.2-1.8-0.9c0.4,0,0.7-0.1,0.8-0.4c-0.6,0.2-1.1,0.2-0.6-0.4c-3.7,1.2-6.8,1-10.1,1.1c-0.1-0.6,0.4-0.4,0.4-0.8
			c-1.9,0.1-4.5-0.3-4.3-1.6c-0.8,0.1-1.9-0.2-1-0.6c-1.3-0.4-1.9-1.5-3-2.1c0.3-0.1,1.1,0.3,1-0.2c-0.7-0.2-1.3-0.5-1.8-0.9
			c0.7,0.1,0.9-0.3,1.6-0.1c-0.8-0.6-1.6-1.1-2.4-1.7c0.2,0,0.6,0,0.6-0.2c-1-0.9-2-1.6-3.8-1.7c0.4-0.9-2-0.9-2-2.1
			c0.6,0.4,2,1,2.6,0.7c-0.3-0.5-1.2-0.6-1.4-1.3c0.2,0.1,0.4,0.3,0.4-0.2c-2.1-2-5.9-2.5-5.9-6.4c-1.1-0.1-0.2-0.1,0-0.4
			c-0.7,0.1-0.8-0.5-1.2,0c-0.5-1.9-4.7-3.7-3.1-6.9c-0.5-0.3-1.5,0.1-0.8-0.8c-0.4-0.1-0.4,0.2-0.8,0.2c0.1-1.2-0.9-1.8-1.1-3.1
			c-0.2-1.1,1-3.2-0.5-3.2c0.7-0.2,0.3,0.7,0,0.6c0.2-0.8-1-2-1.1-3.3c0.3,0,0.7,0,0.6-0.4c-1-0.6-1.5-1.2-2-1.9
			c-0.5-0.7-0.7-0.8-1-1.2c-1.5-2.3-3.4-3.4-4.7-6.4c0.4-0.1,0.5,0.3,0.6,0c-0.4-0.2-0.2-1-0.8-1c-0.3,0.4,0.5,0.8,0,0.8
			c-0.7-0.7-1.6-1.2-2-2.1c1.6-0.6,2.8,0,4.3-0.7c-0.7,0-1.4,0-1.6-0.5c1.4,0.1,1.8,0.2,2.4,0.7c-0.4,0.4-0.6-0.3-0.8,0.4
			c0.8,0.6,1.1,1.9,2,1.3c-0.4,0.4,0.2,0.8,0.6,1c0.2-0.5-0.9-0.7-0.2-1c0.5,0.6,0.4,1.8,1.6,1.2c-0.2,1.1,0.5,0.4,0.8,0.8
			c0,0.7,0.4,0.9-0.2,1.2c1.4,1.4,3.6,3,3.8,4.3c-0.9-0.2-0.2,0.3-0.6,0.4c-0.3,0-0.7-0.7-0.8-0.2c0.2,0.1,0.9,0.6,0.4,0.6
			c-0.2,0-0.5-0.4-0.6,0c0.9,0.5-1.7,1.7,0.1,2.2c0.1-0.4-0.3-0.4-0.4-0.6c1.5,0.5,1.1-0.6,2.3-0.3c-0.5,0.1-0.6-1.1-0.2-1.2
			c0.3,0,0.9-0.1,1.6,0.4c-0.7-0.1,0.5,1.5,0.8,1.4c-0.6,0.4-1.3,0.4-1.8-0.1c0.2,1,1.5,1.5,1.3,2.5c-0.6-0.5-0.9-1.1-1.6-1.5
			c0.5,1,1.5,1.6,2.2,2.5c-0.7-0.1-0.6,0.6-1.1,0.8c0.5,0.5,0.2-0.3,0.8-0.2c0.2,0.8-0.1,1.1,0.3,1.8c-0.7,0.2-0.4-0.5-0.8-0.6
			c0.2,0.7,0.6,1.3,0.8,2c0-0.4,0.2-0.6,0.6-0.6c-0.1-1-0.1-0.9-0.1-2c0.8,0.2,0.3-2.5,1.7-1.8c0.1-0.4-0.2-1.2,0.2-1.2
			c0.5,0.5,1,2,1.6,1.9c-0.3-0.4-0.7-0.8-0.8-1.4c0.3,0,0.7,0.7,0.8,0.2c-0.4-0.2-0.7-0.6-0.8-1.2c0.6-0.1,0.5,0,0.8-0.6
			c0,1.1,0.1,0.3,0.4,0.2c-0.2,0,0.2,0.3,0.8,0.4c0.4,0.1,0.4-0.8,1.1-0.8c1.6,0,2.7,2.1,4.4,2c-0.4-0.2-1.4-0.8-1-1
			c0.8,0.2,2.2,0.9,3.1,0.5c-1.4,0.3-2.7-1.5-2.8-0.7c-0.5-0.3-1.1-1.1-1.8-0.9c0.2-0.7-1-1-0.4-1.4c0.3,0,0.1,0.6,0.4,0.6
			c0-1.3,0.1-0.3,0.6-0.4c1.5-0.1,5.2-0.8,6.2-0.2c-0.4,0.9-1.6-0.2-2.1,0.5c0.8-0.3,1.3,0.5,2,0.5c-0.2-0.1-0.3-0.2-0.4-0.4
			c1-0.4,4.3-2.1,4.1-0.7c0.1-0.9,2.9-1,2.5-1.1c-0.4-0.1-1.4,0.2-1.4-0.2c0.6-0.1,1.3-0.1,1.7-0.4c-0.2-0.1-0.4-0.3-0.4-0.6
			c0.2,0.2,1.4,0.1,1.8-0.2c-1-0.2-1-0.1-2-0.1c-0.2-0.9-0.2-1.8-0.3-2.2c0.6-0.4,1.6-0.4,2.1-0.9c-0.8,0-1.2,0.4-1.9,0.5
			c0.1-0.9-0.6-0.4,0.1-1.4c-1.7,0.6,0.1-0.8-1.4,0c-0.1-0.3-0.6-0.3-0.8-0.6c1-0.3,2.7-0.5,3.7-0.1c0.1-0.3-0.3-0.5,0-0.6
			c0.1,0.3,0.4,0.2,0.6,0c-0.6,0.8,0.6,1.4,0.3,2c0.8-0.5,1.5,0.9,1.2,1.4c1.7,1.7,3.2,3.9,3.5,6.6c1.3,1.3,1.9,3.2,2.5,4.9
			c1.5,4.1,2.8,8.4,3.3,13.6c-0.6-5.3-0.1-9.7-2.7-13c0.2,0,0.4,0.4,0.6,0c-0.6-2.5-1.8-4.4-2.7-6.7c0.3,0,0.6,0,0.8,0
			c-0.6-1.9-2.1-3-2.7-4.9c0.2,0,0.3,0.3,0.4,0c-0.4-1.2-0.8-1.2-1.4-2.3c0.6-0.1,0.7-0.7,1.4-0.6c0.6,0.4,1.1,2.4,1.8,1.5
			c0.7,1.2,1.2,2,2.4,0.7c0.6,0.9,2.4,1,2.4,1.9c1.9-0.8,2.7,1,3.2,2.1c0-0.2,0.1-0.5,0.4-0.4c2,2.2,3.7,2.9,4.3,6.8
			c0.1-0.2,0.2-0.3,0.4-0.4c0.1,0.4,0.4,0.8,0.4,1.4c1.4-0.1,1.8,2.2,3,2.9c-0.8-1.9-2.5-3.1-2.5-5.3c0-1.5-0.4-3.4,0.1-4
			c0.1,0.3,1.3-0.3,1.7-0.8c-0.8-0.1-1.1-0.2-1.8-0.7c-0.1,0.9-1.6,0.3-2.1,0.7c-1.6-1.4-2-2.8-3.3-4.1c0.1,0.1-0.1,0.5-0.2,0.4
			c-0.8-0.5-1.2-2.1-1.5-3.1c-0.2,0.7-0.7,0.2-1,0c0,0.2,0,0.6-0.2,0.6c-1.2-0.4-4.1-1.1-5.2-3c-0.5-0.8-0.3-1.5-1.2-2.5
			c-0.3-0.3-0.7-0.1-1-0.6c-0.3-0.5-0.1,0-0.8-0.4c-0.3-0.2-0.5-1-0.8-1.2c-0.3-0.2-0.6,0-0.8-0.2c-0.4-0.5-0.5-1.3-1-1.8
			c-0.3-0.4-1.5-0.6-1.2-0.4c-0.5-0.3-0.9-1.9-1-1c-0.1-0.8-1.5-0.7-0.4-1.2c-1.1,0-2.4-0.5-1.8-1.3c0,0.4,0.3,1.2,0.8,0.8
			c-0.5-0.3-0.2-0.7-0.8-1.2c0.3,0.1,0.8,0.9,1,0.4c-0.9-0.8-0.8-2-2.2-2.3c0.6-0.5,0.3-0.6-0.2-1c0.5-0.3,0.8,0.5,0.8,0
			c-0.4-0.3-1-0.5-1.2-1c0.4-0.3,0-1.4,0.9-1.2c-0.4,0.9,0.2-0.1,0.4-0.4c0.4,0.1,0.5,1.5,0.8,1c-0.1-0.3-0.3-0.4-0.2-0.8
			c0.4-0.2,0.7,0.6,0.8,0c-0.6-0.4-0.4-1.3,0.1-1.6c-0.7,0-0.4-0.7-0.8-1c-0.4,0.8,0.4,0.6,0,1.4c-0.6-0.3-0.7-0.2-1,0.4
			c-0.1-0.9-0.4-1.2-0.3-2c0.7,0.1,0.3,1.3,1,1.4c0.3-1-0.2-1.7,0.3-2.4c0.7,0.3,0.7,1.5,0.8,1.8c0.3-0.7,0.2,0.7,0.8,0.4
			c-0.4-1.5-1.3-2.7-1.5-3.9c0.8-0.9,0-1.2,0.9-1.6c-1-0.6,0.3-0.6,0.2-1c-1.3,0.3-2.7-0.1-3.4-0.9c0.4,0,0.6,1,0.8,0.4
			c-0.5,0-0.1-0.8-0.8-0.6c-0.5,0.2,0.3,0.6-0.2,0.8c-0.5-1.3-0.7-0.5-2-0.9c0-0.5-0.3-1.8-0.6-1.4c0.1,0.1,0.5,0.8,0,0.8
			c-0.3-0.1,0.2-0.6-0.4-0.8c-0.5,1.1-1.5-0.7-2.1,0.1c0-0.6-0.3-0.4,0-0.8c-2-0.3-2.7-2.2-2.3-3.1c-1,0.1-2.2-2.5-0.9-2.8
			c-0.2-1.6-0.2-2.2,0.3-2.8c0.6,0.5,1.6,0,1.5-1c-0.8-0.5-2.4-0.2-2.2-1.7c0.1-0.7,0.9-0.6,1.3-1c-0.8-0.1-1,0.3-1.8,0.1
			c-0.5-0.8-1.2-1.8-0.7-3c-1.7-2.4-3.9-7.6-0.5-9.3c0,0.2,0,0.5,0.4,0.4c-0.1-1,1.5-0.7,0.2-1.2c0.7,0.2,0.7-0.3,0.8-0.6
			c-1.3,0.3-2.2-0.1-3.7-0.1c-3-4-1.9-11.2,0.6-13.7c-0.4-0.1-0.4,0.3-0.6,0.4c0.2-2,1.9-2.2,3.4-3.1c0.4,0.9,1.8,0.6,2.4,1.7
			c-0.8-0.3,0.5,1,0.2,1.6c1.3,0,0.9,1.6,1.3,2.5c0,1.4,1.1,6.4,1.8,8.3c-0.5,0.4-0.6,1.3-1.3,1.6c0.6,0.6,0.5-0.5,1.1-0.6
			c1.6,4.5,2.1,8.1,3.9,11.8c0,0.4-0.6,0.2-0.4,0.8c0.2,0.4,1.1,1.5,0.3,2.2c1.1,0.1,0.5,1,0.6,1.2c0.4-0.6,0.7,0.5,1,0.6
			c1.7,5.2,2.5,10.7,4.6,15.4c1.8,0.6,3.5,1.6,3.8,2.1c0.1,0.3-0.3,1,0.2,1c0.4-0.2,0-1.3,0.5-1.4c-0.2,0.7,0.7,0.3,0.2,0.8
			c1,0.2,1.6,0.1,2.1-1.2c0.3,0.7,0.6-0.3,1-0.2c-0.1,0.7,1-0.1,1.2,0.7c1-0.9,2.8,0,3.5-1.3c-0.6,0.2-1.1,0.2-1.4-0.2
			c0.6-0.7,1.6-0.8,2.1-1.1c-1-0.3-1.7,0.2-2-0.9c-0.5-0.3-0.7,0.8-0.8,0.2c0.5-0.7-0.6-0.7-0.8-1.6c0.4,0.4,0.7,0,0.8-0.4
			c-0.9,0.5-0.1-1.2-1.2-1.2c0.5,0.3-1.1-0.6-1,0.6c0.3,0.1,0.5-0.3,0.6,0c-0.9,0.1-0.6,0.6-0.8,1c0.1-0.6-0.4-0.7-0.6-1
			c0.6-0.8,0.1-0.6,1.1-0.8c-0.5,0-0.7-0.4-1-0.6c0.9-0.3-1.3-2-0.1-2.6c-0.4-0.1-0.9-0.1-0.8-0.6c0.3,0,0.7,0.7,0.8,0.2
			c-0.9-0.8,0.1-0.6-1.2-0.7c0.8-0.3-0.5-1.4,0.1-2.2c-0.3-0.1-0.5,0.3-0.6,0c0.7-0.4,0.2-0.4,0-1c0.6,0,0.1-0.8,0.7-1.2
			c-0.5-0.2-0.6,0.1-0.8-0.6c0.2,0,0.4,0.4,0.6,0c-0.8-2.4,0-4.7,2.6-4.5c0.5,0.8,3.1-0.1,3.9-0.9c-1.1,0.2-2.4,0.6-2.9,0.1
			c0-0.2,0.9-0.4,0.2-0.6c-0.2,0.5-0.8-0.3-1-0.4c0.1-1.1-0.2-1.2-0.5-2.2c0.9-0.3-0.2-1.5,0.9-1.6c-4.4-1.2-5.9-6.5-6.4-10.3
			c0.1,0.5-0.1-1.4,0.1-2c0.2-0.8,0.6-1.7,1.1-2c1.3,0,2.9-0.8,3.3-1.1c-6.2-0.9-3.2-6.6-4.2-11c1.4-1.9,2.3-3.3,4-4.7
			c0.5-0.1,3.2,0.5,2.9-0.1c0.7,0.2,1.3,1.2,1.8,2.7c0.1-0.5,0.6-0.5,0.6,0c-0.1,0.7-0.9-0.2-0.4,0.6c0.1,0.4,0.2-0.1,0.4-0.2
			c-0.2,0.4,0.6,0.7,0,0.8c0-0.2,0-0.4-0.2-0.4c0.2,0.8-0.2,1.2,0.1,2c-0.3,0-0.4-0.1-0.6-0.2c-0.2,0.9,0.6,0.9,0.6,1.6
			c-0.2,0-0.3-0.3-0.4,0c0.5,0.5,0.2,2,0.8,1.8c-0.3,5.7,2.6,11.7,1.9,18.6c0.2,0.1,0.5,0.2,0.6,0.4c-0.2,2.7,0.2,4.6,0,7
			c-0.5,0.1,0.2-0.9-0.6-0.6c-0.4,1.8,0.8,2,1.3,2.7c0.1,2.5-0.5,5.6,0,7c-0.8,0.4-0.9,3.8-0.9,4.2c0-0.4,0.2-0.7,0.4-0.8
			c-0.2,1.1-1.1,1.8-0.3,2.4c-0.3-0.2-0.9,0.4-0.4,0.4c0.5,1.2-0.5,4.8,1.2,6.7c-0.2,0-0.5,0.1-0.4,0.4c1.7,0.5,3.4,1.9,4.7,2.2
			c-0.2-0.1-0.3-0.2-0.4-0.4c0.6,0,1.2,0,1.4,0.4c-0.3,0.6-0.5,0.6,0.2,1c0.6-0.3-0.4-1.1,0.2-1.4c0.1,1.1,2.2,0.2,2.2,1.3
			c-0.4,0.1-1.2-0.3-1.2,0.2c1.8,0.4,3.1,1.3,4.9,1.8c-0.1,0.3-1,0-1,0.4c0.4,0.2,1.6,0.1,1,0.6c0.5-0.1,0.9-0.4,1.2,0.1
			c-0.2,0.2-0.3,0.7-0.2,1.2c1.2,0.6,1.2,2.1,2.4,2.1c-0.2-0.1-0.3-0.2-0.4-0.4c0.6,0.3,1.4,1.3,0.6,1.2c1.1,0.5,2.8,1.8,3.8,2.9
			c0.6-0.7,2.8,0.5,3.4,1.1c-0.2,0-0.5,0.1-0.4,0.4c0.9-0.3,0.8,1.3,1.4,0.6c-0.3,0.1-0.6-0.3-0.2-0.4c0.6,1.1,2.3,0.8,3.2,2.1
			c-0.6,0.1-1.2-0.6-1.4,0.2c0.8,0,1.6,0.1,2,0.5c-0.1,0.3-0.4,0.3-0.4,0.6c1.6,0.4,0.9,1.9,1.1,3.3c0.2,1.2,0.8,2.5,0.7,3.7
			c0,0.3-0.4,0.3-0.4,0.6c0.1,0.7,1.2,2.3,0.3,3.4c1,1.9-0.8,7.1-3.9,5.3c0.6,0.3,0.6,0.6,0.2,1c1.1,0.1,1.6-0.5,2.2,0.5
			c0.4,3-1.8,7.8-2.6,11.2c-0.4,1.7-0.4,4.7-2,4.2c1.3,0.7,0,1.9,0.1,3.2c-1,0.5-2.4,4.1-3.5,5.9c-1.2,2.1-2.6,2.6-3.4,4.1
			c-0.1-0.5-0.4,0.6-1,0.4c-0.1,1.7-1.5,1.9-2.8,2.9c0-0.2-0.4-0.3-0.4,0c0.2,0,0.5,0.1,0.4,0.4c-0.4-0.1-1.7,3.2-3.5,1.7
			c-0.4,0.7-0.9-0.1-0.8,0.6c-1.4-0.5-2.9,1.2-4.1-0.1c0.5-0.3,0.6,0.8,0.8,0.2c-1-0.5-2.7-0.1-2.9,0.3c0-0.2-0.3-0.5-0.4-0.2
			c0.2,0.1,0.2,0.2,0.2,0.4c-0.9-0.1-1.7,0-1.7,0.6C118,150.2,118,150.2,117.9,150.2z"/>
		<path class="st1" d="M114.6,74.6c0.2,0,0.2-0.2,0.4-0.2c-0.1,0.5,0.3,0.6,0.6,0.8c0.4-1.5-0.8-1.4-1.4-2.1c0.2,0.6-0.3,0.5-0.2,1
			c0.4,0.3,1,0.9,0.6,1.4c0.5-0.3,0.8,0.5,0.8,0C115.1,75.3,114.8,74.9,114.6,74.6z"/>
		<path class="st1" d="M93.9,61.6c0.6,0.2,1.3-0.5,0.8-0.8c0,0.2-0.4,0.2-0.4,0c0.1,0,0.2-0.2,0-0.2C94.1,60.9,94.1,61.4,93.9,61.6z
			"/>
		<path class="st1" d="M92.2,63c0.6,0.1,1,0,1.2-0.4C93,62.2,92.3,62.5,92.2,63z"/>
		<path class="st1" d="M110.2,82.5c0.1-0.4,0.3,0.1,0.4-0.2c-0.8-0.5,0.7-0.1,0-0.4c-0.3,0.3-1.4-1.1-1-0.6
			C109.7,81.8,109.9,82.2,110.2,82.5z"/>
		<path class="st1" d="M108.3,83c0.1-0.2,0.2-0.2,0.4-0.2c-0.1-0.7-0.5-0.3-0.2-1c-0.3,0.1-0.5-0.3-0.6,0
			C108.6,81.8,107.8,83.1,108.3,83z"/>
		<path class="st1" d="M108.8,87.1c-0.1-0.3-0.7-1.6,0-1c0-0.5-0.3-0.6-0.2-1.2c-0.6,0.2-0.5-0.3-0.8-0.4
			C108,85.4,108.4,87.1,108.8,87.1z"/>
		<path class="st1" d="M108.1,89.5c0.5,1.1,2.9,2.2,2.2,3.3c0.3,0.3,0.8,0.4,0.8,1c-0.5,0.2-0.7-0.9-1-0.2c1.1,0.5,1.8,1.1,1,2
			c0.3,0,0.4,0.1,0.6,0.2c1.4-0.4,3.1,1.6,4,3.2c1.2-1,2.6,2.1,3.4,1.3c0.4,0.5,0.5,1.3,1.4,1.4c-1.2-5.7-7.1-7.6-8.3-10.5
			c-0.3,0-0.4,0.1-0.6,0.2c-0.3-0.3-0.2-0.9-0.6-1.2c-0.1,0.2,0,0.4-0.2,0.4c0-0.4-0.1-0.4-0.4-0.2c0-0.2,0.4-0.4,0-0.6
			c-0.1,0.4-0.3-0.3-0.6,0.2c0-0.3-0.7-0.8-0.2-1c0,0.3,0.3,1.1,0.4,0.6c-0.2-0.3-0.2-0.8-0.6-1c0,0.3-0.2,0.5-0.4,0.6
			c0.1-0.5-0.6-0.2-0.6-0.6c0.2-0.3,0.3-0.6,0.6-0.8c0.1,0.6-0.4,0.4-0.4,0.8c0.4,0,0.4,0.3,0.6,0.4c-0.3-0.7,0.3-1.1-0.4-1.4
			c-0.2,0.3-0.2,0.8-0.6,0.8c-0.6-0.9-2.5-2.6-2.6-2.7c0.7,1.9,2.4,2.9,3.3,4.5C108.7,90,107.8,89,108.1,89.5z"/>
		<path class="st1" d="M102.6,90.7c0.9,0.7,2.5,0.8,3.2,1.7c-0.2,0-0.6-0.1-0.6,0.2c0.3,1,1.7,0.9,1.2,1.6c0.3-0.1,0.5,0.3,0.6,0
			c-0.2-0.6-0.3-1.2-0.8-1.6c0-0.5,0.6-0.2,0.6-0.6c-1-0.8-2.7-0.2-3.4-1.5c0.1,0,0.2-0.2,0-0.2C103.2,90.9,102.7,90.4,102.6,90.7z"
			/>
		<path class="st1" d="M123.1,100.6c0.3-0.6,0.6-3.8,0.2-1.6c-0.8,1.1-0.4,2.4-1.3,3c-0.2-0.8-0.6-0.6-0.8,0c-0.5-0.1-0.2-0.9-0.6-1
			c-0.1,1.3,0.7,2.9,1.2,2.1c0.1,2.7,3,2.8,3.3,4.1c0.6-0.6,1.3,0.3,1.9-0.1c-0.5,0.8,0.4,0.9-0.1,1.6c0.4,0,0.4,0.2,0.8,0.2
			c0.5-1.6,2,0.5,2.5,0.1c-0.2-0.1-0.5-0.3-0.2-0.4c0-0.1,2,0.6,1.6,0.2c-0.8-0.2-0.1-0.8-0.2-1.4c-1.5-1.1-3-0.6-3-2.5
			c-0.9-0.2,0.2,0.4-0.4,0.4c-0.4-0.4-0.3-1-1-0.6c0-0.4-0.2-1.7-0.4-1.2c0.2,1.3-1.9,0.1-1.2-0.2c-0.5,0-0.7,0.4-0.8-0.2
			c0.2,0,0.3,0.3,0.4,0c-0.4-0.3-1-0.3-1-1c0.4,0.8,1.6,0.5,1.4-0.2c0,0.2-0.4,0.2-0.4,0c0.4,0.1,0.7-0.1,0.6-0.6
			c-0.4-0.1-0.4,0.3-0.6,0.4c0.1-0.6,0-0.7-0.4-0.4c-0.2-0.4-0.1-2-0.4-1.6c-0.2,1,0,1.2-0.2,1.6C124.3,100.5,123,101.2,123.1,100.6
			z"/>
		<path class="st1" d="M111.7,100.2c0.9-0.5,1.1-1.8,0.3-2.4C112.2,98.8,111.6,99.2,111.7,100.2z"/>
		<path class="st1" d="M113.3,112.6c0.2-0.4,1.2,0.4,1.6-0.3c-0.9-0.7-0.8-2.7-0.5-3.4c-1,0.4-0.3-0.9-0.8-1c0,0.4-0.2,0.7-0.4,0.8
			c0.1-0.4-0.3-0.4-0.4-0.6c0.7,0.2,0.2-0.7,0-0.8c-0.6,0.4,0.1,1-0.7,1.4c-0.3,0-0.1-0.6-0.4-0.6c-0.2,0.6-0.1,0.5,0.2,1
			c0.5,0.3,0.7-0.8,0.8-0.2C112.1,109.5,113.2,111.4,113.3,112.6z"/>
		<path class="st1" d="M117.7,135.9c0.3-6.9-0.8-12.8-0.4-18.5c0.4-0.2,0.7,0.6,0.8,0c-2.2-2-0.5-6.8-1.6-8.5
			C115.5,117.2,117.5,127.6,117.7,135.9z"/>
		<path class="st1" d="M97.6,112.7c-1.4,0-2.5-1.3-3.7-0.9C94.8,112.3,96.4,113.1,97.6,112.7z"/>
		<path class="st1" d="M101.4,114.6c-0.8,0-1.8-0.8-2.2-0.5C99.9,114.2,100.8,115.2,101.4,114.6z"/>
		<path class="st1" d="M120.9,121.3c-0.4-1.5,0.3-4.3,0.6-5.8c-0.3,1.2-1.1,1.1-1.5,1.4C121.4,117.6,119.4,120.4,120.9,121.3z"/>
		<path class="st1" d="M121,123.1c0.4,0.1,0.1,0.9,0.6,1c0.1-0.4,1.2-1.7,0.7-1.4C121.9,123.7,121.3,122.8,121,123.1z"/>
		<path class="st1" d="M115.3,75.6c-0.1,0.5-0.3-0.3-0.8,0c0.5-0.5-0.2-1.1-0.6-1.4c-0.1-0.5,0.4-0.4,0.2-1c0.5,0.6,1.8,0.6,1.4,2.1
			c-0.3-0.2-0.6-0.3-0.6-0.8c-0.2,0-0.2,0.2-0.4,0.2C114.8,74.9,115.1,75.3,115.3,75.6z"/>
		<path class="st1" d="M130.2,46.7c-0.2,0.1-0.3,0.2-0.6,0.2c-0.3-5-2.4-16.8,5.4-15.3c-0.6,0.3,0.1,0.5,1.2,0.6
			c0.4,0.7,0.4,3.4,1.7,3.9c-0.2,0.4,0.1,1,0.2,1.4c-0.1,0.5-0.3-0.2-0.6,0.2c0.1,0.2,0.4,0.3,0.6,0.4c-0.2,0.1-0.6,0.2-0.8,0.8
			c0.4-0.5,0.9,1.1,1.2,0.6c0.2,0.1-0.2,0.8,0.2,1.2c-0.2,0-0.4,0-0.6,0c0.7,0.6,0,0.5-0.2,1.2c0.1,0.5,0.3-0.2,0.6,0.2
			c-0.5,0.6,0.9,2.4-0.3,3c0.6,1,0.6,1.9,0.1,3.4c-2,0.2-5.2,0.5-7.3-0.8c-0.3,0-0.2,0.4,0,0.4c-0.1,0.6-0.4-0.2-0.8,0
			c0.3-0.3,0.6-0.4,0-0.6C130.7,47.4,129.8,47.3,130.2,46.7z"/>
		<path class="st1" d="M137.8,57c-0.6-0.3-0.2,0.6-0.8,0.4c0.4,0.5,0,0.7,0.6,0.8c-0.5,0.9-0.5,1-0.5,2c-1,0.1-1.1,1.4-2.1,0.9
			c0,1,0.9,0,1.2,0c0.2,0.8-0.7,1.9,0.5,2.4c-0.3,0.8-1.8,1.4-2.5,0.5c0-0.3,1.2-0.2,0.2-0.4c0.2-0.5,0.2-0.6,0.8-0.4
			c0-0.9-1.3-0.3-1.2,0.2c-0.7-0.1-0.1-1.3-1.2-1c0.2-1.3,1.7-1.6,0.7-2.4c0.2-0.6,0.6,0.1,1,0c-0.3-0.5-1-0.5-1-1.2
			c-0.2,0.3-1.2,0.8-0.9,1c-0.9,0.6-0.3-0.8-1.2-0.2c0.3-0.6,0-0.5,0-1.4c-0.3,0-0.2,0.5-0.2,0.8c-0.4-1-0.4-1.7-1.4-1.8
			c0-1,0.9-1.3,0.1-1.8c0-0.5,0.7,0,0.6,0.2c0.4-1.5-0.5-0.3,0.3-2c-0.6,0.1-0.4,0.1-1,0c0.3-0.8,0-2.4,0.5-3
			c0.9,0.5,2.4,0.5,2.8,1.5c0.2,0,0.2-0.2,0.4-0.2c0.2,0,0.1-0.2,0-0.2c0.1-0.3,0.5-0.1,0.8-0.2c0.1-0.4-0.7-0.1-1-0.2
			c0.5-0.3,0.4-0.4-0.4-0.4c0-0.2,0.3-0.2,0.4-0.2c0.2,0,0.1-0.2,0-0.2c0-0.2,0.4-0.2,0.6-0.2c-0.1-0.2-0.2-0.4-0.4-0.4
			c-0.2-0.4,1.2-0.1,0.4-0.4c1.1-0.5,1.6,0.1,2.9,0.3c-0.2,0.4-0.6,0.6-1.2,0.6c0.7,0.5,1.8-0.2,2.4,0.5
			C138.9,53.8,137.5,55.2,137.8,57z M132.8,54.2c0,0.5,0,1,0.6,1c-0.1-0.9,0.4-1.1,0.7-1.6c-0.2,0-0.3-0.2-0.4-0.4
			c0.2,0,0.6,0,0.6-0.2C133.4,52.4,133.5,54.2,132.8,54.2z"/>
		<path class="st1" d="M134.3,53c0,0.2-0.4,0.2-0.6,0.2c0.1,0.2,0.2,0.4,0.4,0.4c-0.3,0.5-0.8,0.7-0.7,1.6c-0.6,0-0.6-0.5-0.6-1
			C133.5,54.2,133.4,52.4,134.3,53z"/>
		<path class="st1" d="M94.3,60.7c0.2,0,0.1,0.2,0,0.2c0,0.3,0.4,0.2,0.4,0c0.5,0.3-0.2,1-0.8,0.8C94.1,61.4,94.1,60.9,94.3,60.7z"
			/>
		<path class="st1" d="M152.6,69.7c0,0.2,0.4,0.2,0.4,0.4c0.2-0.3,0-0.4,0.8-0.2c-0.1-0.5-1-0.2-0.8-0.8c0.4,0.2,0.8,0.4,1.2,0.7
			c0.3-0.7-0.7-0.2-0.4-0.8c-0.6,0.6-0.6-0.4-1.4-0.2c0.4-0.6,1.1,0.3,1.8,0.1c0.1,0.9,1.2,0.8,2,1.1c0.1,0.4-0.3,1.2,0.4,1
			c-0.6,2.7-0.6,5.8-3.1,6.9c0,0.4,0.2,0.4,0.2,0.8c-0.8-0.1-0.8-0.1-0.6,0.6c-0.9-0.6-0.9,0.6-1.9,0.3c-0.4-0.9-0.4-2.4-0.5-3
			c-0.2-0.9-1.4-3.2-0.7-2.8c-1.2-1.1,0.2-3.4-0.9-5.1c0.7-0.3,0.5,0.2,0.2-0.8c1,0.3,1.7-0.2,3.1,0.5
			C151.5,68.9,153.4,69.5,152.6,69.7z"/>
		<path class="st1" d="M133.6,67.3c1,0.5,0.9,0.5,2,0.3c0.6,1.3-0.1,2.6,0.1,3.6c-0.2,0.2-0.5,0.2-0.8,0.2c0.2,0.4,0.3,0.8,0.4,1.2
			c-0.5,0.3-0.9,0.5-0.9,1.8c-0.6,0.3-0.8-0.1-1.2,0.2c0.3,1.1-0.8,1.9-1.5,2.6c0.1,0.4,0.6,0.4,0.4,1c-0.6-0.8-0.3,1.4-1,0.6
			c0.2,0.6,0.2,0.6,0,1.2c-0.4,0-0.5-0.4-0.6,0c-0.9-0.9-0.2-1.4-0.3-2.2c1.1,0.7,0.9-1.7,0.7-2.4c0.6-0.1,0.4-1.1-0.4-1.2
			c0-0.6,0.4-1.5,0.3-2.2c-0.1-0.4-0.6-0.4-0.6-0.6c0-0.7,0.4,0.4,0.6,0.2c0.1-0.1-0.4-0.9,0.1-1.4c0.1-0.1,0.6-0.1,0.6-0.2
			c-0.1,0.2,0.2-1,0-0.4C131.9,67.7,133.1,68.3,133.6,67.3z"/>
		<path class="st1" d="M127.9,72.8c0.7,0.9-0.3,1.1,0.4,1.8c-0.3-0.3-0.6-0.2-0.6,0.4C127.2,74.1,127.9,73.9,127.9,72.8z"/>
		<path class="st1" d="M129.5,74c0.6-0.4-0.4,0.7-0.4,1c0.6,0.2-0.1,0.7,0,1.4C127.9,75.7,128.8,74.3,129.5,74z"/>
		<path class="st1" d="M125.4,80.2c0.5-0.2,0.8,1,0.8,0c0.4,0.2,0,0.4,0,0.6c-0.6,0.1-0.5-0.7-1-0.2
			C124.8,80.4,125.4,80.4,125.4,80.2z"/>
		<path class="st1" d="M109.6,81.3c-0.4-0.4,0.7,0.9,1,0.6c0.7,0.3-0.8-0.1,0,0.4c-0.1,0.3-0.4-0.2-0.4,0.2
			C109.9,82.2,109.7,81.8,109.6,81.3z"/>
		<path class="st1" d="M56.7,79.8c-0.1,0.4,0.9,0.9,0.8,0.6c0.3,0.2,0.1,0.5-0.2,0.4c0.3,0.3,1.7,0.1,2.4,0.5
			c-0.1,0.3-0.5,0.2-0.8,0.2c0.6,0.5,1.8-0.2,2.9,0.1c0.2,0.5,1.3,1,2.8,1.7c-0.3,1,1.1,2.1,1.9,2.7c-0.4,0.8,1,2.1,1.3,2.9
			c-0.6,0.8-0.1,0.7-0.1,1.6C67.4,90,67.6,90,67,90.2c0.8,0.5-0.1,0.6-0.6,0.8c0.2,0.3,0.2,0.5,0,0.8c0.7,0.1,0.8-0.6,1.4-0.6
			c-0.1,0.6-1,0.3-0.8,1.2c0.2-0.1,0.2-0.4,0.6-0.4c0.5,0.7,0.3,1.3-0.5,1.6c0.2,0.2,0.6,0,0.6,0.8c-0.2,0-0.2-0.1-0.2-0.2
			c-0.2-0.5-0.5,0.4-0.8,0.4c0,0.3,0.1,0.5,0.4,0.6c-0.4,0.7-1.8,1.6-1.1,1.8c-0.1,0.7-1.4,1.9-3.1,1.5c-3.1-0.8-8.8-10.7-8.7-15.8
			C52.9,82.1,54.7,79.2,56.7,79.8z"/>
		<path class="st1" d="M108,81.8c0.1-0.3,0.3,0.1,0.6,0c-0.4,0.7,0.1,0.3,0.2,1c-0.2-0.1-0.4,0-0.4,0.2
			C107.8,83.1,108.6,81.8,108,81.8z"/>
		<path class="st1" d="M148.9,83.3c0,0.2-0.3,0.2-0.4,0.2c0.4,0.5,0.8-0.6,1.2,0.2c-0.6,0.2,0,0.8-0.6,0.4c-0.2,0.7,0.8,0.3,0.6,1
			c0.4,0.1,0.6-0.2,0.6-0.6c0.4,0,0.5,0.4,0.6,0c0.1,0.3,0.2,0.8,0,1.4c-1.8-0.2-0.1,2.8-1.4,4.2c-0.2,0.2-0.8,0.1-1,0.4
			c-0.3,0.4,0,1.6-0.6,1c0,0.4,0.2,0.4,0.2,0.8c-0.4-0.6-0.3,0.9-1.2,0.2c0.2,0.7,0.6,0.4,1,0.6c0.1,0.6-0.9,0.1-1,0.6
			c0.1,0.4,0.3-0.2,0.6,0.2c-0.7,0.6-0.6,0.9-1.9,0.9c0-0.2,0.2-0.2,0.2-0.4c0-0.2-0.4-0.1-0.4-0.4c0-0.8,0.3,0.1,0.6-0.4
			c-1.5-0.1-1.2-1.7-2-2.1c-0.6-0.2,0.4-0.3,0.6-0.2c-0.2-0.4-0.6-0.5-1.2-0.4c0.2-0.8,0.3-1.6-0.8-1.6c0-0.9,0.9-2,0.5-2.6
			c-0.4,0.5,0.1-0.6,0.4,0c0.1-0.4-0.1-0.5-0.2-0.8c0.1-0.5,0.6,1.1,0.8,0c0.5,0.1,0.1,0.9,0,1c1.1-1.5,0.7-1.4,0.4,0.6
			c0.7-0.9,1.4-2.8,1.3-3.8c0.1-0.2,0.4-0.1,0.4-0.4c0.2,0.7,0,1.3-0.3,2.4c0.4-0.7,0.9-1.1,1.1-2c0.5,0.8,0.8-0.3,1.4,0.2
			C148.1,83.8,148.2,83.2,148.9,83.3z"/>
		<path class="st1" d="M107.9,84.4c0.3,0.1,0.2,0.6,0.8,0.4c-0.2,0.6,0.2,0.7,0.2,1.2c-0.8-0.6-0.2,0.7,0,1
			C108.4,87.1,108,85.4,107.9,84.4z"/>
		<path class="st1" d="M108.9,90.1c-0.9-1.7-2.6-2.7-3.3-4.5c0,0.2,2,1.8,2.6,2.7c0.4,0,0.4-0.5,0.6-0.8c0.7,0.4,0.1,0.7,0.4,1.4
			c-0.2-0.1-0.2-0.5-0.6-0.4c0-0.4,0.6-0.2,0.4-0.8c-0.3,0.2-0.4,0.5-0.6,0.8c0,0.4,0.7,0.2,0.6,0.6c0.2-0.1,0.4-0.2,0.4-0.6
			c0.4,0.2,0.4,0.7,0.6,1c-0.1,0.5-0.4-0.3-0.4-0.6c-0.6,0.2,0.2,0.7,0.2,1c0.3-0.4,0.5,0.3,0.6-0.2c0.4,0.2,0,0.4,0,0.6
			c0.3-0.2,0.4-0.2,0.4,0.2c0.2,0,0.2-0.2,0.2-0.4c0.3,0.3,0.3,0.9,0.6,1.2c0.2-0.1,0.3-0.2,0.6-0.2c1.2,2.9,7.1,4.8,8.3,10.5
			c-0.9-0.1-0.9-0.9-1.4-1.4c-0.9,0.8-2.2-2.3-3.4-1.3c-0.9-1.6-2.6-3.6-4-3.2c-0.2-0.1-0.3-0.2-0.6-0.2c0.9-1,0.1-1.5-1-2
			c0.3-0.7,0.5,0.4,1,0.2c0-0.6-0.4-0.8-0.8-1c0.8-1.1-1.7-2.1-2.2-3.3C107.8,89,108.7,90,108.9,90.1z"/>
		<path class="st1" d="M103.4,90.3c0.2,0.1,0.1,0.2,0,0.2c0.8,1.3,2.4,0.7,3.4,1.5c0,0.4-0.7,0.1-0.6,0.6c0.4,0.5,0.6,1,0.8,1.6
			c-0.1,0.3-0.3-0.1-0.6,0c0.5-0.8-0.9-0.6-1.2-1.6c0.1-0.2,0.4-0.2,0.6-0.2c-0.7-0.9-2.3-1-3.2-1.7
			C102.7,90.4,103.2,90.9,103.4,90.3z"/>
		<path class="st1" d="M124.2,101c0.2-0.4,0.1-0.6,0.2-1.6c0.3-0.4,0.2,1.2,0.4,1.6c0.4-0.3,0.5-0.2,0.4,0.4
			c0.2-0.1,0.2-0.5,0.6-0.4c0,0.4-0.2,0.6-0.6,0.6c0,0.3,0.4,0.2,0.4,0c0.1,0.6-1,0.9-1.4,0.2c0,0.7,0.6,0.8,1,1
			c-0.1,0.3-0.2,0-0.4,0c0.2,0.6,0.3,0.2,0.8,0.2c-0.7,0.3,1.5,1.5,1.2,0.2c0.2-0.4,0.3,0.8,0.4,1.2c0.7-0.3,0.6,0.2,1,0.6
			c0.6,0-0.5-0.6,0.4-0.4c0,1.9,1.5,1.4,3,2.5c0,0.6-0.6,1.2,0.2,1.4c0.4,0.4-1.6-0.3-1.6-0.2c-0.3,0.1,0,0.3,0.2,0.4
			c-0.4,0.4-1.9-1.7-2.4-0.1c-0.4,0-0.4-0.3-0.8-0.2c0.4-0.8-0.5-0.8,0.1-1.6c-0.6,0.5-1.3-0.4-1.9,0.1c-0.4-1.3-3.2-1.4-3.3-4.1
			c-0.5,0.9-1.2-0.8-1.2-2.1c0.4,0.1,0.1,0.9,0.6,1c0.2-0.6,0.6-0.8,0.8,0c0.9-0.6,0.6-1.9,1.3-3c0.4-2.2,0.1,1-0.2,1.6
			C123,101.2,124.3,100.5,124.2,101z"/>
		<path class="st1" d="M98.6,105.9c-0.4,0.3-1.1-0.7-1.6-0.9C97.8,104.4,98.7,105.6,98.6,105.9z"/>
		<path class="st1" d="M99.2,105.3c-0.3-0.5-0.5-0.3-1-0.2c0.3-0.3,0.2-0.6-0.4-0.6c0.1-0.2,0.5-0.2,0.4-0.6
			c0.6,0.5,0.8,0.2,1.8,0.3c-0.6,1,0,1.2,0.1,2.6c-0.9-1.4-1.1-0.2-1.6-1.5C98.7,105,98.9,105.4,99.2,105.3z"/>
		<path class="st1" d="M94.8,104.6c-0.3,0.5-0.5,0.3-1,0.2c0.2,0.4,0.7,0.5,1,0.8c-0.2,0.3-0.5-0.1-1,0.2c-0.3-0.4,0.2-0.7-0.4-1
			C92.9,104.8,94.4,104.2,94.8,104.6z"/>
		<path class="st1" d="M92.7,104.7c0.2,0,0.1,0.2,0,0.2c0,0.4,0.6-0.3,0.8,0.2c-0.1,0.2-0.3,0.4,0,0.4c-0.4,0.7-0.3,0.5-1.9,0.6
			c0.2-0.3,0.6-0.4,0.8-0.2c-0.1-0.4-0.5-0.4-0.8-0.6c0-0.6,1.3,0.3,0.6-0.2C92.4,104.9,92.7,104.9,92.7,104.7z"/>
		<path class="st1" d="M95.3,105.8c0-0.6-0.3-0.3-0.4-1.2c0.2,0,0.4,0,0.6,0c0,0.2-0.3,0.2-0.4,0.2c0.1,0.2,0.8,0.7,0.8,0.2
			C96.3,105,95.9,105.9,95.3,105.8z"/>
		<path class="st1" d="M98.2,107.1c0.2,0,0.2,0.1,0.2,0.2c0.5,0,0.7-0.3,1,0c0,0.3-1.1,0.4-0.4,0.6c-0.1,0.3-0.2-0.1-0.6,0
			c0.1,0.2,0.2,0.4,0.4,0.4c-0.3,0.7-0.3-0.5-0.8-0.2C98.3,107.7,97.7,107.5,98.2,107.1z"/>
		<path class="st1" d="M99.4,107.3c0.3-0.6,0.9,0.2,1.2,0.2c0,0.6-1.2-0.4-0.6,0.2c-0.1,0.3-0.3-0.1-0.6,0
			C99.5,107.5,99.6,107.4,99.4,107.3z"/>
		<path class="st1" d="M92.6,108.5c0.1-0.3,0.5-0.1,0.4,0.2c-0.2-0.1-0.2,0.1-0.2,0.2c-0.5,0-0.6-0.3-0.8-0.6
			c-0.3,0.1,0,0.4,0.2,0.4c-0.2,0.1-0.7,0.1-1,0c0-0.4,0.7-0.1,0.6-0.6c0.4,0.1,0.6,0.4,1,0.6C92.8,108.5,92.7,108.5,92.6,108.5z"/>
		<path class="st1" d="M91.2,108.1c0.7,0.1-0.7,0.5,0,0.6c-0.5,0.5-1.1,0.4-1.8-0.1c0.4-0.4-0.1-0.4,0.2-0.8
			c0.3,0.3,1.2,0.1,1.4,0.4C91.1,108.3,91.2,108.2,91.2,108.1z"/>
		<path class="st1" d="M116.5,108.8c1.1,1.8-0.6,6.5,1.6,8.5c-0.2,0.6-0.4-0.2-0.8,0c-0.4,5.8,0.8,11.7,0.4,18.5
			C117.5,127.6,115.5,117.2,116.5,108.8z"/>
		<path class="st1" d="M93.9,111.8c1.1-0.4,2.2,0.9,3.7,0.9C96.4,113.1,94.8,112.3,93.9,111.8z"/>
		<path class="st1" d="M99.2,114.2c0.4-0.3,1.5,0.4,2.2,0.5C100.8,115.2,99.9,114.2,99.2,114.2z"/>
		<path class="st1" d="M120,116.8c0.4-0.3,1.2-0.2,1.5-1.4c-0.3,1.5-1,4.3-0.6,5.8C119.4,120.4,121.4,117.6,120,116.8z"/>
		<path class="st1" d="M122.2,122.7c0.5-0.3-0.6,1-0.7,1.4c-0.5-0.1-0.2-0.9-0.6-1C121.3,122.8,121.9,123.7,122.2,122.7z"/>
		<path class="st1" d="M112.8,108.7c-0.2-0.6-0.3,0.4-0.8,0.2c-0.3-0.5-0.4-0.4-0.2-1c0.3,0.1,0.1,0.6,0.4,0.6c0.7-0.4,0-1,0.7-1.4
			c0.2,0.1,0.7,1,0,0.8c0.1,0.2,0.5,0.2,0.4,0.6c0.3-0.1,0.4-0.4,0.4-0.8c0.5,0.1-0.3,1.4,0.8,1c-0.3,0.7-0.4,2.8,0.5,3.4
			c-0.4,0.7-1.4-0.1-1.6,0.3C113.2,111.4,112.1,109.5,112.8,108.7z"/>
	</g>
	<path class="st2" d="M216.5,113c0,57.2-46.3,103.5-103.5,103.5S9.5,170.2,9.5,113C9.5,55.8,55.8,9.5,113,9.5
		C170.2,9.5,216.5,55.8,216.5,113z"/>
	<g>
		<path class="st3" d="M46.3,161.4l7-10c-1.6,0.1-3.3,0.3-5,0.7s-3.3,0.8-4.5,1.2s-2.4,0.8-3.4,1.2s-1.7,0.7-2.1,0.8
			c-0.1,0-0.2,0-0.3-0.1c-0.1-0.1-0.2-0.2-0.2-0.3c0-0.1,0.4-0.8,1.1-2.1s1.6-2.7,2.5-4.2c5.4-1.8,10.1-2.7,14.2-2.7
			c4.8,0,8.1,1,9.9,2.9c0.7,0.7,1.2,1.5,1.5,2.5s0.5,2,0.5,2.9c0,2.2-0.5,4.2-1.4,6c-1,1.8-2.3,3.3-4.1,4.6c-1.8,1.3-3.9,2.3-6.3,3
			c-2.4,0.7-5.1,1-7.9,1c-0.5,0-1.5-0.1-3.1-0.3l-2.1,3.6c0.2,0.3,0.3,0.6,0.3,0.7c0,0.4-0.1,0.8-0.3,1.1c-0.3,0.4-0.7,1-1.2,1.7
			c-0.5,0.7-0.8,1.2-1,1.4s-0.4,0.4-0.6,0.6c-0.2,0.2-0.4,0.3-0.7,0.3c-0.5,0-0.7-0.1-0.8-0.4c-0.1-0.3-0.2-0.6-0.2-1.1
			c0-0.6,0.3-1.7,1-3.1s1.7-3.2,3-5.6c-0.7-0.3-1.3-0.6-1.7-1s-0.6-0.8-0.6-1.2c0-0.9,0.5-1.7,1.6-2.5S44.2,161.9,46.3,161.4z
			 M48.7,162l-1.3,2.1c0.6,0,1.1,0.1,1.6,0.1c0.5,0,0.8,0,1.1,0c2.7,0,5-0.3,7-1s3.5-1.5,4.7-2.6c1.2-1,2-2,2.5-3.1
			c0.5-1,0.8-1.9,0.8-2.6c0-0.9-0.4-1.7-1.2-2.2s-2-0.9-3.5-1.1s-3.4-0.3-5.8-0.3c0,0.2,0,0.4,0,0.6c0,0.8-0.4,1.8-1.3,3l-4,6l3-0.3
			c0.2,0,0.4,0.1,0.4,0.3c0,0.2-0.2,0.3-0.6,0.4L48.7,162z"/>
		<path class="st3" d="M68.1,163.6c2.3-2,4.6-3.5,6.8-4.5c2.2-1,3.9-1.5,5.1-1.5c0.3,0,0.6,0.1,0.9,0.4c0.3,0.3,0.5,0.6,0.7,0.9
			s0.2,0.6,0.2,0.7c0,0.3-0.1,0.5-0.3,0.6s-0.6,0.3-1.1,0.4c0.1,0.2,0.2,0.5,0.4,0.9s0.3,0.7,0.4,0.9s0.1,0.4,0.1,0.6
			c0,0.4-0.4,1-1.1,2s-1.3,1.7-1.6,2.1s-0.4,1-0.4,1.7c0,1.1,0.5,1.6,1.6,1.6c1.1,0,2.8-1,5.1-2.9v1.3c-3.9,4.1-6.7,6.1-8.3,6.1
			c-0.6,0-1-0.2-1.3-0.6s-0.4-0.9-0.4-1.6c0-1.1,0.4-2.8,1.3-5c-2.2,2.4-3.9,4.1-5,5.1s-2,1.5-2.7,1.5c-0.3,0-0.8-0.3-1.3-0.8
			c-0.5-0.6-1-1.3-1.3-2.2c-0.4-0.9-0.6-1.8-0.6-2.8c0-0.7,0.1-1.3,0.2-1.7s0.4-0.9,0.8-1.4C66.6,165,67.2,164.4,68.1,163.6z
			 M79.1,161.2c-4,1.7-6.8,3.2-8.6,4.4s-2.6,2.5-2.6,3.7c0,0.5,0.1,0.9,0.2,1.1c0.2,0.3,0.4,0.4,0.7,0.4c0.2,0,0.5-0.1,0.9-0.3
			c1.6-0.9,3.1-2.1,4.4-3.5C75.7,165.7,77.3,163.7,79.1,161.2z"/>
		<path class="st3" d="M95.6,167.3v1.6c-3.2,4-5.8,6.1-7.8,6.1c-1.1,0-1.9-0.6-2.6-1.7c-0.6-1.1-0.9-2.6-0.9-4.5
			c0-1.5,0.4-3.3,1.1-5.3s1.7-4.1,3-6.2c1.2-2.1,2.5-3.9,3.8-5.5s2.6-2.7,3.7-3.3c0.5-0.3,0.8-0.4,1.1-0.4c0.3,0,0.5,0.1,0.7,0.4
			s0.2,0.7,0.2,1.4c0,2-0.9,4.5-2.6,7.5c-1.7,3-4.2,6-7.3,9.1c-0.2,0.8-0.2,1.3-0.2,1.8c0,0.9,0.2,1.7,0.6,2.3
			c0.4,0.6,1,0.9,1.8,0.9c0.4,0,0.8-0.1,1.2-0.4s0.9-0.6,1.4-1.1C93.2,169.4,94.2,168.6,95.6,167.3z M88.7,163.4
			c0.8-0.7,1.6-1.6,2.3-2.5s1.4-2,2.1-3c0.7-1.1,1.2-2.1,1.6-2.9s0.6-1.5,0.6-1.9c0-0.3-0.1-0.5-0.4-0.5c-0.1,0-0.3,0.1-0.5,0.2
			c-0.9,0.7-2,2.2-3.2,4.3C90,159.1,89.2,161.2,88.7,163.4z"/>
		<path class="st3" d="M105.9,170.5c2.1-1.8,3.9-3.3,5.5-4.6c1.5-1.3,2.7-2.4,3.6-3.1c0.9-0.8,1.6-1.4,2.3-1.9
			c0.7-0.5,1.1-0.8,1.3-0.8c0.3,0,0.7,0.3,1,1c0.3,0.7,0.5,1.3,0.5,1.7c0,0.3-0.5,0.9-1.5,2s-1.7,1.9-2.2,2.5s-0.7,1.3-0.7,1.9
			c0,0.4,0.1,0.7,0.4,0.9c0.3,0.2,0.6,0.4,1,0.4c0.4,0,1-0.2,1.6-0.7c0.6-0.4,1.6-1.2,2.9-2.3v1.5c-1.3,1.2-2.6,2.2-3.6,3.1
			c-1.1,0.9-2,1.5-2.8,1.9s-1.5,0.6-2,0.6c-0.5,0-0.9-0.2-1.2-0.5s-0.5-0.8-0.5-1.3c0-0.5,0.1-1,0.3-1.5c0.2-0.5,0.5-1.1,0.8-1.8
			c0.4-0.7,0.9-1.5,1.5-2.5s1.2-1.9,1.7-2.7c-1.6,1.2-3,2.4-4.2,3.5s-2.2,2.1-3,2.9c-0.8,0.8-1.4,1.5-1.8,2
			c-0.9,0.9-1.7,1.4-2.4,1.4c-0.8,0-1.2-0.5-1.2-1.6c0-0.4,0.3-1.2,0.9-2.4s1.4-2.6,2.6-4.3c0.1-0.1,0.1-0.3,0.1-0.6
			c0-0.3-0.2-0.4-0.5-0.4c-0.3,0-0.8,0.3-1.5,0.9c-0.6,0.6-1.9,1.9-3.7,3.8c-0.5,0.5-1.1,1.2-1.7,2.1c-0.6,0.9-1.1,1.4-1.4,1.7
			c-0.3,0.3-0.6,0.4-0.8,0.4c-0.6,0-1.1-0.5-1.6-1.4s-0.7-2-0.7-3.3c0-0.9,0.2-1.7,0.5-2.3c0.3-0.7,0.8-1.5,1.5-2.4
			c1-1.4,1.9-2.4,2.5-3c0.7-0.6,1.3-0.9,2.1-0.9c0.4,0,0.8,0.1,1.1,0.2s0.5,0.4,0.5,0.7c0,0.3-0.3,0.8-0.8,1.5s-1.3,1.4-2.1,2.2
			c-0.5,0.4-0.9,0.9-1.3,1.6s-0.6,1.1-0.6,1.4c0,0.4,0.2,0.6,0.5,0.6c0.3,0,0.9-0.5,2-1.5c1.1-1,2.2-2.1,3.5-3.3
			c1.3-1.2,2.4-2.2,3.5-3s2-1.2,2.8-1.2c0.5,0,0.8,0.2,1.1,0.5s0.4,0.7,0.4,1.2c0,0.3-0.2,0.9-0.7,1.7c-0.5,0.8-1.1,1.9-2,3.1
			C108.5,167.3,107.3,168.8,105.9,170.5z"/>
		<path class="st3" d="M121.2,169.4v-1.5c2.2-2.2,4-4.3,5.6-6.3c1.6-2,2.8-3.5,3.7-4.7c0.9-1.1,1.7-2,2.4-2.4
			c0.7-0.5,1.6-0.7,2.6-0.7c0.5,0,0.8,0.2,0.8,0.6c0,0.3-0.2,0.8-0.6,1.4s-1,1.2-1.6,1.8c-0.9,0.8-1.7,1.8-2.6,3.1s-1.8,2.8-2.9,4.7
			c0.8-0.6,1.8-1.3,2.9-2.2s2-1.5,2.6-2s1.4-0.9,2-1.1s1.3-0.4,2-0.4c0.4,0,0.7,0.1,0.8,0.2c0.1,0.1,0.2,0.4,0.2,0.9
			c0,1.1-0.3,2.2-0.9,3.2s-1.4,2.2-2.4,3.3s-2.4,2.4-3.9,3.7c0.5,0.2,1.1,0.3,1.7,0.3c1.8,0,4.2-1.3,7.2-3.9v1.6
			c-1.2,1-2.3,1.9-3.4,2.8s-2.2,1.6-3.1,2.1c-1,0.5-1.9,0.8-2.7,0.8c-0.3,0-0.6,0-1-0.1c-0.4-0.1-0.7-0.1-1-0.2
			c-0.3-0.1-0.7-0.2-1.1-0.4c-0.5-0.2-0.8-0.3-1.1-0.4c-0.5,0.1-0.8,0.2-0.8,0.2c-0.5,0-1.2-0.2-1.9-0.6c-0.5,0.9-1.1,2.1-1.7,3.6
			c-0.6,1.5-1.1,2.7-1.5,3.5s-1,1.7-1.7,2.5c-0.4,0.4-0.7,0.6-0.8,0.6c-0.7,0-1-0.6-1-1.7c0-1,0.2-2,0.6-3s0.9-2,1.5-3
			c0.6-0.9,1.2-1.9,1.9-2.8c0.7-1,1.2-1.7,1.5-2.1c2.4-4,4.3-7.4,5.7-10.1C125.7,164.7,123,167.6,121.2,169.4z M130.5,170.4
			c1.5-1.5,2.7-2.8,3.4-3.9c0.8-1.1,1.1-1.9,1.1-2.4c0-0.5-0.3-0.8-0.9-0.8c-0.8,0-1.9,0.6-3.2,1.8s-2.8,2.8-4.3,4.9
			c1.1-0.1,1.9-0.2,2.3-0.1C129.3,169.9,129.9,170.1,130.5,170.4z"/>
		<path class="st3" d="M140.4,169.2v-1.4c0.8-0.9,1.5-1.7,1.9-2.4c-0.5-0.2-0.9-0.4-1.1-0.6s-0.3-0.6-0.3-1.1c0-0.5,0.2-1.2,0.7-2
			s1-1.6,1.7-2.3c0.7-0.7,1.3-1.1,1.9-1.4c0.2-0.1,0.4-0.1,0.6-0.1c0.3,0,0.5,0.1,0.5,0.4c0,0.2-0.2,0.8-0.7,1.5
			c3.2-0.5,5.2-0.7,6-0.7c0.3,0,0.6,0,0.7,0.1c0.3,0.1,0.5,0.4,0.6,0.9s0.2,1,0.2,1.4c0,0.3-0.1,0.6-0.4,1c-0.3,0.4-0.8,0.9-1.5,1.6
			c-0.8,0.8-1.5,1.7-2.1,2.7s-0.8,1.7-0.8,2.2c0,0.7,0.4,1,1.3,1c0.9,0,2.6-0.9,4.9-2.7v1.5c-1.3,1.3-2.3,2.3-3.2,3
			s-1.6,1.3-2.3,1.7c-0.7,0.4-1.3,0.6-1.9,0.6c-0.6,0-1.2-0.3-1.6-0.8s-0.6-1.4-0.6-2.4c0-0.6,0.2-1.3,0.5-2.1
			c0.3-0.8,0.8-1.7,1.5-2.6c0.6-0.9,1.4-1.9,2.2-2.8c-0.4,0.1-0.9,0.2-1.4,0.3c-0.5,0.1-1.1,0.2-1.7,0.3c-0.6,0.1-1.1,0.2-1.4,0.2
			C143.6,166.1,142.2,167.8,140.4,169.2z"/>
		<path class="st3" d="M165.4,167.5v1.6c-1.5,1.8-2.9,3.2-4.2,4.1c-1.3,0.9-2.4,1.4-3.3,1.4c-1.3,0-2.2-0.6-2.8-1.9
			c-0.6-1.3-0.9-2.6-0.9-4.1c0-0.6,0.1-1.1,0.2-1.6s0.3-0.9,0.4-1.3c0.2-0.3,0.5-0.9,0.9-1.6c2.2-3.2,4.2-4.8,6-4.8
			c0.9,0,1.4,0.3,1.4,1c0,0.5-0.3,1.2-0.9,2.2s-1.1,1.7-1.6,2.1c-1.3,1.2-2.2,2.1-2.6,2.6s-0.6,1-0.6,1.6c0,0.5,0.2,1,0.6,1.3
			s0.9,0.5,1.6,0.5c0.7,0,1.5-0.2,2.4-0.8S164.1,168.6,165.4,167.5z M163.9,157.8c-0.4,0-0.8-0.1-1.1-0.4s-0.5-0.6-0.5-1.1
			c0-0.6,0.3-1.4,1-2.1s1.3-1.2,2-1.2c0.5,0,0.9,0.1,1.1,0.4s0.5,0.7,0.5,1.2c0,0.6-0.3,1.3-0.9,2.1
			C165.3,157.4,164.6,157.8,163.9,157.8z"/>
		<path class="st3" d="M180.8,163.6c-2.7,2.9-4.1,4.9-4.1,6c0,0.6,0.3,0.9,0.8,0.9c0.4,0,1-0.2,1.7-0.7s1.8-1.2,3.4-2.4v1.5
			c-2.2,2-3.9,3.5-5,4.4c-1.2,0.9-2.1,1.4-2.9,1.4c-1.3,0-1.9-0.8-1.9-2.4c0-0.5,0.1-0.9,0.2-1.4c0.1-0.4,0.4-0.9,0.6-1.4
			c0.3-0.5,0.7-1.2,1.2-2.1s1.2-1.9,1.9-3.1c-0.9,0.4-2,1.3-3.3,2.5c-0.9,0.8-1.6,1.5-2.2,2.2c-0.6,0.7-1.2,1.5-1.9,2.4
			c-0.7,0.9-1.2,1.4-1.5,1.8s-0.6,0.4-1,0.4c-0.5,0-0.9-0.5-1.4-1.5c-0.4-1-0.6-2.1-0.6-3.4c0-0.8,0.1-1.4,0.3-1.9s0.6-1.1,1.1-1.9
			c1.1-1.6,2-2.7,2.8-3.4c0.8-0.7,1.5-1.1,2.2-1.1c0.5,0,0.9,0.1,1.2,0.2s0.4,0.4,0.4,0.7c0,0.1-0.1,0.3-0.1,0.5s-0.2,0.3-0.3,0.4
			s-0.4,0.4-0.7,0.8c-2.4,2.6-3.6,4.2-3.6,5c0,0.4,0.1,0.6,0.4,0.6c0.2,0,0.5-0.3,1.1-0.8s1.2-1.3,2.1-2.2s1.8-1.9,3-2.9
			s2.4-1.9,3.9-2.9c0.8-0.5,1.5-0.8,2-0.8c0.2,0,0.5,0.3,0.7,1c0.2,0.6,0.4,1.3,0.4,1.9C181.8,162.4,181.4,162.9,180.8,163.6z"/>
		<path class="st3" d="M190.6,156.2h1c0.8-1.4,1.6-2.4,2.2-2.9s1.4-0.9,2.3-0.9s1.3,0.2,1.3,0.6c0,0.2-0.3,0.6-1,1.4
			s-1.2,1.4-1.5,1.9c0.5,0.1,1,0.1,1.4,0.1c0.4,0,0.7,0.1,1,0.1c-0.9,1.6-2,3.1-3.3,4.8c-0.4,0-0.8-0.1-1.1-0.1
			c-0.3,0-0.6,0-0.9-0.1s-0.7-0.1-1.1-0.1c-0.8,1.3-1.5,2.4-2.1,3.4s-1,1.9-1.3,2.8c-0.3,0.8-0.4,1.6-0.4,2.4c0,1,0.4,1.5,1.3,1.5
			c0.6,0,1.4-0.3,2.3-0.9c0.9-0.6,2.2-1.5,3.8-2.7v1.5c-4.1,4.3-7.2,6.4-9.2,6.4c-0.7,0-1.2-0.3-1.7-0.8s-0.6-1.2-0.6-2
			c0-0.5,0.1-1.2,0.4-1.9s0.7-1.9,1.3-3.4c-0.2,0.2-0.4,0.4-0.6,0.5c-0.2,0.2-0.4,0.3-0.5,0.5s-0.3,0.3-0.5,0.4s-0.4,0.3-0.6,0.5
			v-1.5c1.6-1.3,3.6-3.5,5.9-6.8c-0.2,0-0.4,0-0.6,0c-0.2,0-0.4,0-0.7,0c-0.9,0-1.6,0.1-2,0.2c-0.2,0-0.4,0.1-0.5,0.1
			s-0.3,0.1-0.3,0.1s-0.1,0-0.1-0.1c0-0.5,0.3-1.2,0.9-2.2c0.5-0.8,1-1.4,1.4-1.8c0.4-0.4,1-0.7,1.7-0.8
			C188.5,156.2,189.4,156.2,190.6,156.2z"/>
	</g>
</g>
</svg>
